<?xml version="1.0" encoding="UTF-8" standalone="no"?>
<svg
   fill="#ffffff"
   viewBox="0 0 42 42"
   width="42"
   height="42"
   version="1.1"
   id="svg1141"
   xmlns="http://www.w3.org/2000/svg"
   xmlns:svg="http://www.w3.org/2000/svg">
  <defs
     id="defs1145" />
  <path
     d="M 33,0 H 9 C 4.038,0 0,4.037 0,9 v 24 c 0,4.963 4.038,9 9,9 h 24 c 4.962,0 9,-4.037 9,-9 V 9 C 42,4.037 37.962,0 33,0 Z m -2,23 v 4 0.021 H 30.998 C 30.986,29.768 28.749,32 26,32 H 25.5 C 24.513,32 23.567,31.58 22.904,30.848 22.242,30.117 21.919,29.13 22.017,28.143 22.195,26.38 23.787,25 25.643,25 H 27 c 1.103,0 2,-0.897 2,-2 v -9.795 l -12,2.25 V 26 30 c 0,2.757 -2.243,5 -5,5 H 11.5 C 10.513,35 9.567,34.58 8.904,33.848 8.242,33.117 7.919,32.13 8.017,31.143 8.195,29.38 9.787,28 11.643,28 H 13 c 1.103,0 2,-0.897 2,-2 V 11.353 c 0,-0.963 0.687,-1.79 1.633,-1.966 L 29.224,7.027 C 29.663,6.944 30.115,7.06 30.458,7.346 30.803,7.632 31,8.053 31,8.5 Z"
     id="path1139" />
</svg>
