<?xml version="1.0" encoding="UTF-8" standalone="no"?>
<svg
   fill="#ffffff"
   viewBox="0 0 44 23"
   width="44"
   height="23"
   version="1.1"
   id="svg1245"
   xmlns="http://www.w3.org/2000/svg"
   xmlns:svg="http://www.w3.org/2000/svg">
  <defs
     id="defs1249" />
  <path
     d="m 36,0 v 2 h 8 V 0 Z M 18,3 v 2 h 8 V 3 Z m 18,0 v 2 h 8 V 3 Z M 18,6 v 2 h 8 V 6 Z m 18,0 v 2 h 8 V 6 Z M 0,9 v 2 H 8 V 9 Z m 18,0 v 2 h 8 V 9 Z m 9,0 v 2 h 8 V 9 Z m 9,0 v 2 h 8 V 9 Z M 0,12 v 2 h 8 v -2 z m 18,0 v 2 h 8 v -2 z m 9,0 v 2 h 8 v -2 z m 9,0 v 2 h 8 V 12 Z M 0,15 v 2 h 8 v -2 z m 9,0 v 2 h 8 v -2 z m 9,0 v 2 h 8 v -2 z m 9,0 v 2 h 8 v -2 z m 9,0 v 2 h 8 V 15 Z M 0,18 v 2 h 8 v -2 z m 9,0 v 2 h 8 v -2 z m 9,0 v 2 h 8 v -2 z m 9,0 v 2 h 8 v -2 z m 9,0 v 2 h 8 V 18 Z M 0,21 v 2 h 8 v -2 z m 9,0 v 2 h 8 v -2 z m 9,0 v 2 h 8 v -2 z m 9,0 v 2 h 8 v -2 z m 9,0 v 2 h 8 v -2 z"
     id="path1243" />
</svg>
